{"title":"Johnny English Strikes Again 2018 720p HDCAM x264 [MW]","magnet":"magnet:?xt=urn:btih:a22b3351189f152aad4a9b1a95f0463a3cf930e3&dn=Johnny+English+Strikes+Again+2018+720p+HDCAM+x264+%5BMW%5D&tr=udp%3A%2F%2Ftracker.leechers-paradise.org%3A6969&tr=udp%3A%2F%2Fzer0day.ch%3A1337&tr=udp%3A%2F%2Fopen.demonii.com%3A1337&tr=udp%3A%2F%2Ftracker.coppersurfer.tk%3A6969&tr=udp%3A%2F%2Fexodus.desync.com%3A6969","uploader":"MFreaky","categoryP":"video","categoryS":"movies","size":"1206923934","seeders":"126","leechers":"80","description":" <a href=\"https://pichub.site/image/EAdcX\" rel=\"nofollow\" target=\"_NEW\">https://pichub.site/image/EAdcX</a> <a href=\"\nhttps://pichub.site/image/EAkS5\" rel=\"nofollow\" target=\"_NEW\">\nhttps://pichub.site/image/EAkS5</a> <a href=\"\nhttps://pichub.site/image/EAVHJ\" rel=\"nofollow\" target=\"_NEW\">\nhttps://pichub.site/image/EAVHJ</a> <a href=\"\nhttps://pichub.site/image/EAyXj\" rel=\"nofollow\" target=\"_NEW\">\nhttps://pichub.site/image/EAyXj</a> <a href=\"\nhttps://pichub.site/image/EAwgh\" rel=\"nofollow\" target=\"_NEW\">\nhttps://pichub.site/image/EAwgh</a> <a href=\"\nhttps://pichub.site/image/EAhMr\" rel=\"nofollow\" target=\"_NEW\">\nhttps://pichub.site/image/EAhMr</a>\r\n\r\nIMDB <a href=\"\nhttps://www.imdb.com/title/tt6921996/\" rel=\"nofollow\" target=\"_NEW\">\nhttps://www.imdb.com/title/tt6921996/</a>\r\n\r\nVideo\r\nFormat                                   : AVC\r\nFormat/Info                              : Advanced Video Codec\r\nFormat profile                           : High@L4.1\r\nFormat settings                          : CABAC / 4 Ref Frames\r\nFormat settings, CABAC                   : Yes\r\nFormat settings, RefFrames               : 4 frames\r\nCodec ID                                 : V_MPEG4/ISO/AVC\r\nDuration                                 : 1 h 23 min\r\nBit rate                                 : 1 700 kb/s\r\nWidth                                    : 1 280 pixels\r\nHeight                                   : 558 pixels\r\nDisplay aspect ratio                     : 2.25:1\r\nFrame rate mode                          : Constant\r\nFrame rate                               : 29.970 (30000/1001) FPS\r\nColor space                              : YUV\r\nChroma subsampling                       : 4:2:0\r\nBit depth                                : 8 bits\r\nScan type                                : Progressive\r\nBits/(Pixel*Frame)                       : 0.079\r\nStream size                              : 1 016 MiB (88%)\r\nWriting library                          : x264 core 155 r2901 7d0ff22\r\n\r\nAudio\r\nFormat                                   : AAC\r\nFormat/Info                              : Advanced Audio Codec\r\nFormat profile                           : LC\r\nCodec ID                                 : A_AAC-2\r\nDuration                                 : 1 h 23 min\r\nBit rate                                 : 224 kb/s\r\nChannel(s)                               : 2 channels\r\nChannel positions                        : Front: L R\r\nSampling rate                            : 48.0 kHz\r\nFrame rate                               : 46.875 FPS (1024 SPF)\r\nCompression mode                         : Lossy\r\nStream size                              : 134 MiB (12%)\r\nLanguage                                 : English","last_updated":"2018-09-20T12:21:59.866Z","parsed":{"xt":"urn:btih:a22b3351189f152aad4a9b1a95f0463a3cf930e3","dn":"Johnny English Strikes Again 2018 720p HDCAM x264 [MW]","tr":["udp://exodus.desync.com:6969","udp://open.demonii.com:1337","udp://tracker.coppersurfer.tk:6969","udp://tracker.leechers-paradise.org:6969","udp://zer0day.ch:1337"],"infoHash":"a22b3351189f152aad4a9b1a95f0463a3cf930e3","infoHashBuffer":{"type":"Buffer","data":[162,43,51,81,24,159,21,42,173,74,155,26,149,240,70,58,60,249,48,227]},"name":"Johnny English Strikes Again 2018 720p HDCAM x264 [MW]","announce":["udp://exodus.desync.com:6969","udp://open.demonii.com:1337","udp://tracker.coppersurfer.tk:6969","udp://tracker.leechers-paradise.org:6969","udp://zer0day.ch:1337"],"urlList":[]}}